<?xml version="1.0" encoding="UTF-8" standalone="no"?>
<svg
   id="Layer_1"
   viewBox="0 0 200 64"
   version="1.1"
   width="200"
   height="64"
   xmlns="http://www.w3.org/2000/svg"
   xmlns:svg="http://www.w3.org/2000/svg">
  <defs
     id="defs1592">
    <style
       id="style1590">.cls-1{fill:#fff;}.cls-2{fill:#ff5f5f;}.cls-3{fill:#333a45;}.cls-4{opacity:.8;}</style>
  </defs>
  <rect
     class="cls-3"
     width="200"
     height="64"
     rx="7"
     ry="7"
     id="rect1594"
     x="0"
     y="0"
     style="display:inline;stroke-width:1" />
  <g
     id="g1633"
     style="display:inline">
    <path
       id="path38"
       class="cls-1"
       d="m 57.31,34.09 c -2.13,0.27 -3.86,0.07 -3.86,0.07 V 21.13 h 2.62 c 1.73,0 3.4,0.72 4.53,2.03 0.79,0.92 1.43,2.22 1.43,4.02 0,4.39 -2.26,6.12 -4.72,6.91 m 11.21,-9.15 c -0.76,-4.03 -2.94,-6.55 -5.16,-8.1 -2.3,-1.61 -5.06,-2.43 -7.87,-2.43 H 15.65 c -1.39,0 -1.92,1.35 -1.92,2.03 0,0.09 0,0.44 0,0.44 0,0 -0.07,17.63 0.06,27.04 0.38,5.56 5.94,5.56 5.94,5.56 0,0 18.18,-0.05 26.9,-0.11 0.41,0 0.82,-0.05 1.21,-0.15 4.96,-1.24 5.48,-5.85 5.43,-8.43 9.98,0.55 17.02,-6.49 15.25,-15.86" />
    <path
       d="m 19.73,50.97 c -2.42,0 -7.07,-1.45 -7.44,-6.96 -0.12,-9.4 -0.06,-26.97 -0.06,-27.15 v -0.45 c 0,-1.41 1.1,-3.51 3.42,-3.51 h 39.84 c 3.17,0 6.19,0.93 8.72,2.7 3.11,2.17 5.05,5.21 5.78,9.05 v 0 c 0.89,4.71 -0.22,9.13 -3.12,12.44 -2.86,3.27 -7.23,5.13 -12.14,5.22 -0.34,4.44 -2.62,7.38 -6.52,8.35 -0.49,0.12 -1.02,0.19 -1.57,0.19 -8.72,0.05 -26.91,0.11 -26.91,0.11 v 0 z M 15.65,15.9 c -0.35,0 -0.42,0.54 -0.42,0.55 v 0.42 c 0,0.19 -0.06,17.74 0.06,27.03 0.27,3.91 4.03,4.07 4.45,4.08 -0.01,0 18.17,-0.05 26.88,-0.11 0.31,0 0.6,-0.04 0.86,-0.1 2.93,-0.73 4.37,-3.07 4.29,-6.94 0,-0.42 0.16,-0.82 0.46,-1.11 0.3,-0.29 0.71,-0.44 1.12,-0.42 4.61,0.25 8.71,-1.27 11.26,-4.17 2.28,-2.61 3.15,-6.12 2.43,-9.91 -0.58,-3.04 -2.11,-5.45 -4.55,-7.15 -2.03,-1.42 -4.45,-2.16 -7.01,-2.16 H 15.65 Z m 39.38,19.82 c -1.03,0 -1.71,-0.08 -1.75,-0.08 -0.76,-0.09 -1.33,-0.73 -1.33,-1.49 V 21.12 c 0,-0.83 0.67,-1.5 1.5,-1.5 h 2.62 c 2.2,0 4.27,0.93 5.67,2.55 1.19,1.38 1.79,3.06 1.79,5 0,4.3 -1.94,7.1 -5.76,8.34 -0.09,0.03 -0.18,0.05 -0.28,0.06 -0.92,0.12 -1.77,0.15 -2.46,0.15 z m 2.28,-1.64 z m -2.36,-1.36 c 0.56,0 1.27,-0.02 2.03,-0.11 1.78,-0.6 3.55,-1.75 3.55,-5.44 0,-1.19 -0.36,-2.22 -1.07,-3.04 -0.83,-0.96 -2.06,-1.51 -3.39,-1.51 h -1.12 z"
       id="path1631" />
  </g>
  <path
     id="path42"
     class="cls-2"
     d="m 33.24,42.16 c 0.43,0.22 0.71,-0.05 0.71,-0.05 0,0 6.34,-5.79 9.2,-9.12 2.54,-2.98 2.71,-8.01 -1.66,-9.88 -4.36,-1.88 -7.95,2.21 -7.95,2.21 -3.11,-3.42 -7.83,-3.25 -10,-0.93 -2.18,2.32 -1.42,6.29 0.21,8.51 1.53,2.08 8.23,8.06 9.25,9.07 0,0 0.07,0.08 0.25,0.21" />
  <g
     aria-label="Donate"
     id="text6864"
     style="font-weight:bold;font-size:32px;font-family:Nunito;-inkscape-font-specification:'Nunito Bold';text-align:center;text-anchor:middle;display:inline;fill:#fdfeff;stroke-width:2.2">
    <path
       d="m 84.84137,43.551071 q -1.056,0 -1.632,-0.544 -0.544,-0.576 -0.544,-1.632 v -18.208 q 0,-1.056 0.544,-1.6 0.576,-0.576 1.632,-0.576 h 6.208 q 5.664,0 8.736,2.912 3.104,2.912 3.104,8.352 0,2.72 -0.8,4.832 -0.768,2.08 -2.304,3.52 -1.504,1.44 -3.712,2.208 -2.176,0.736 -5.024,0.736 z m 1.92,-3.392 h 4.032 q 1.984,0 3.424,-0.48 1.472,-0.512 2.432,-1.472 0.992,-0.992 1.472,-2.464 0.48,-1.504 0.48,-3.488 0,-3.968 -1.952,-5.92 -1.952,-1.952 -5.856,-1.952 h -4.032 z"
       id="path6866" />
    <path
       d="m 113.80134,43.871071 q -2.432,0 -4.224,-0.992 -1.792,-0.992 -2.784,-2.816 -0.992,-1.856 -0.992,-4.352 0,-1.888 0.544,-3.36 0.576,-1.504 1.632,-2.56 1.056,-1.088 2.528,-1.632 1.472,-0.576 3.296,-0.576 2.432,0 4.224,0.992 1.792,0.992 2.784,2.816 0.992,1.824 0.992,4.32 0,1.888 -0.576,3.392 -0.544,1.504 -1.6,2.592 -1.056,1.056 -2.528,1.632 -1.472,0.544 -3.296,0.544 z m 0,-3.04 q 1.184,0 2.08,-0.576 0.896,-0.576 1.376,-1.696 0.512,-1.152 0.512,-2.848 0,-2.56 -1.088,-3.808 -1.088,-1.28 -2.88,-1.28 -1.184,0 -2.08,0.576 -0.896,0.544 -1.408,1.696 -0.48,1.12 -0.48,2.816 0,2.528 1.088,3.84 1.088,1.28 2.88,1.28 z"
       id="path6868" />
    <path
       d="m 127.08135,43.807071 q -0.96,0 -1.472,-0.512 -0.512,-0.544 -0.512,-1.536 v -12.096 q 0,-0.992 0.512,-1.504 0.512,-0.512 1.44,-0.512 0.928,0 1.44,0.512 0.512,0.512 0.512,1.504 v 2.176 l -0.352,-0.8 q 0.704,-1.696 2.176,-2.56 1.504,-0.896 3.392,-0.896 1.888,0 3.104,0.704 1.216,0.704 1.824,2.144 0.608,1.408 0.608,3.584 v 7.744 q 0,0.992 -0.512,1.536 -0.512,0.512 -1.472,0.512 -0.96,0 -1.504,-0.512 -0.512,-0.544 -0.512,-1.536 v -7.552 q 0,-1.824 -0.704,-2.656 -0.672,-0.832 -2.112,-0.832 -1.76,0 -2.816,1.12 -1.024,1.088 -1.024,2.912 v 7.008 q 0,2.048 -2.016,2.048 z"
       id="path6870" />
    <path
       d="m 148.96932,43.871071 q -1.696,0 -3.04,-0.64 -1.312,-0.672 -2.08,-1.792 -0.736,-1.12 -0.736,-2.528 0,-1.728 0.896,-2.72 0.896,-1.024 2.912,-1.472 2.016,-0.448 5.408,-0.448 h 1.6 v 2.304 h -1.568 q -1.984,0 -3.168,0.192 -1.184,0.192 -1.696,0.672 -0.48,0.448 -0.48,1.28 0,1.056 0.736,1.728 0.736,0.672 2.048,0.672 1.056,0 1.856,-0.48 0.832,-0.512 1.312,-1.376 0.48,-0.864 0.48,-1.984 v -3.68 q 0,-1.6 -0.704,-2.304 -0.704,-0.704 -2.368,-0.704 -0.928,0 -2.016,0.224 -1.056,0.224 -2.24,0.768 -0.608,0.288 -1.088,0.16 -0.448,-0.128 -0.704,-0.512 -0.256,-0.416 -0.256,-0.896 0,-0.48 0.256,-0.928 0.256,-0.48 0.864,-0.704 1.472,-0.608 2.816,-0.864 1.376,-0.256 2.496,-0.256 2.304,0 3.776,0.704 1.504,0.704 2.24,2.144 0.736,1.408 0.736,3.648 v 7.68 q 0,0.992 -0.48,1.536 -0.48,0.512 -1.376,0.512 -0.896,0 -1.408,-0.512 -0.48,-0.544 -0.48,-1.536 v -1.536 h 0.256 q -0.224,1.12 -0.896,1.952 -0.64,0.8 -1.632,1.248 -0.992,0.448 -2.272,0.448 z"
       id="path6872" />
    <path
       d="m 168.48935,43.871071 q -2.08,0 -3.488,-0.704 -1.376,-0.704 -2.048,-2.048 -0.672,-1.376 -0.672,-3.392 v -6.816 h -1.664 q -0.768,0 -1.184,-0.384 -0.416,-0.416 -0.416,-1.12 0,-0.736 0.416,-1.12 0.416,-0.384 1.184,-0.384 h 1.664 v -2.912 q 0,-0.992 0.512,-1.504 0.544,-0.512 1.504,-0.512 0.96,0 1.472,0.512 0.512,0.512 0.512,1.504 v 2.912 h 3.392 q 0.768,0 1.184,0.384 0.416,0.384 0.416,1.12 0,0.704 -0.416,1.12 -0.416,0.384 -1.184,0.384 h -3.392 v 6.592 q 0,1.536 0.672,2.304 0.672,0.768 2.176,0.768 0.544,0 0.96,-0.096 0.416,-0.096 0.736,-0.128 0.384,-0.032 0.64,0.256 0.256,0.256 0.256,1.088 0,0.64 -0.224,1.152 -0.192,0.48 -0.736,0.672 -0.416,0.128 -1.088,0.224 -0.672,0.128 -1.184,0.128 z"
       id="path6874" />
    <path
       d="m 181.1614,43.871071 q -2.656,0 -4.576,-0.992 -1.92,-0.992 -2.976,-2.816 -1.024,-1.824 -1.024,-4.32 0,-2.432 0.992,-4.256 1.024,-1.824 2.784,-2.848 1.792,-1.056 4.064,-1.056 1.664,0 2.976,0.544 1.344,0.544 2.272,1.568 0.96,1.024 1.44,2.496 0.512,1.44 0.512,3.264 0,0.576 -0.416,0.896 -0.384,0.288 -1.12,0.288 h -10.272 v -2.304 h 8.992 l -0.512,0.48 q 0,-1.472 -0.448,-2.464 -0.416,-0.992 -1.248,-1.504 -0.8,-0.544 -2.016,-0.544 -1.344,0 -2.304,0.64 -0.928,0.608 -1.44,1.76 -0.48,1.12 -0.48,2.688 v 0.224 q 0,2.624 1.216,3.936 1.248,1.28 3.648,1.28 0.832,0 1.856,-0.192 1.056,-0.224 1.984,-0.736 0.672,-0.384 1.184,-0.32 0.512,0.032 0.8,0.352 0.32,0.32 0.384,0.8 0.064,0.448 -0.192,0.928 -0.224,0.48 -0.8,0.832 -1.12,0.704 -2.592,1.056 -1.44,0.32 -2.688,0.32 z"
       id="path6876" />
  </g>
</svg>
