<?xml version="1.0" encoding="UTF-8" standalone="no"?>
<svg
   id="Layer_1"
   viewBox="0 0 190 64"
   version="1.1"
   width="190"
   height="64"
   xmlns="http://www.w3.org/2000/svg"
   xmlns:svg="http://www.w3.org/2000/svg">
  <defs
     id="defs1592">
    <style
       id="style1590">.cls-1{fill:#fff;}.cls-2{fill:#ff5f5f;}.cls-3{fill:#333a45;}.cls-4{opacity:.8;}</style>
  </defs>
  <rect
     class="cls-3"
     width="190"
     height="64"
     rx="7"
     ry="7"
     id="rect1594"
     x="0"
     y="0"
     style="display:inline;stroke-width:1" />
  <g
     class="cls-5"
     id="g3043"
     style="display:none;opacity:0.8">
    <path
       class="cls-2"
       d="m 71.16,19.07 c -0.55,-0.17 -0.99,-0.4 -1.31,-0.7 -0.15,-0.13 -0.23,-0.29 -0.23,-0.49 0,-0.14 0.04,-0.27 0.12,-0.37 0.08,-0.1 0.18,-0.15 0.29,-0.15 0.11,0 0.25,0.05 0.41,0.16 0.71,0.53 1.52,0.79 2.44,0.79 0.64,0 1.13,-0.12 1.48,-0.36 0.34,-0.24 0.52,-0.58 0.52,-1.03 0,-0.35 -0.16,-0.62 -0.48,-0.79 -0.32,-0.18 -0.83,-0.34 -1.54,-0.5 -0.67,-0.14 -1.22,-0.31 -1.66,-0.49 -0.43,-0.18 -0.77,-0.43 -1.01,-0.75 -0.24,-0.32 -0.37,-0.72 -0.37,-1.21 0,-0.49 0.13,-0.92 0.4,-1.3 0.27,-0.38 0.64,-0.68 1.12,-0.89 0.48,-0.21 1.03,-0.32 1.64,-0.32 0.57,0 1.09,0.08 1.57,0.24 0.48,0.16 0.89,0.4 1.22,0.71 0.16,0.14 0.24,0.3 0.24,0.49 0,0.14 -0.04,0.26 -0.13,0.36 -0.08,0.1 -0.18,0.16 -0.29,0.16 -0.1,0 -0.24,-0.05 -0.4,-0.16 -0.37,-0.28 -0.71,-0.48 -1.04,-0.61 -0.32,-0.12 -0.71,-0.19 -1.17,-0.19 -0.62,0 -1.1,0.13 -1.44,0.38 -0.34,0.25 -0.52,0.6 -0.52,1.05 0,0.38 0.15,0.67 0.46,0.87 0.3,0.2 0.79,0.37 1.46,0.53 0.7,0.16 1.27,0.33 1.71,0.5 0.44,0.17 0.78,0.41 1.04,0.71 0.26,0.3 0.39,0.69 0.39,1.16 0,0.47 -0.13,0.91 -0.4,1.28 -0.27,0.37 -0.64,0.66 -1.13,0.86 -0.49,0.2 -1.04,0.31 -1.67,0.31 -0.63,0 -1.19,-0.08 -1.73,-0.25 z"
       id="path3021"
       style="fill:#ffffff" />
    <path
       class="cls-2"
       d="m 82.45,13.41 c 0.11,0.1 0.16,0.25 0.16,0.43 v 4.88 c 0,0.17 -0.06,0.3 -0.17,0.41 -0.11,0.11 -0.26,0.16 -0.44,0.16 -0.17,0 -0.3,-0.05 -0.41,-0.15 -0.1,-0.1 -0.16,-0.23 -0.16,-0.4 v -0.46 c -0.18,0.34 -0.44,0.59 -0.76,0.77 -0.32,0.18 -0.69,0.26 -1.09,0.26 -1.42,0 -2.14,-0.78 -2.14,-2.35 v -3.12 c 0,-0.18 0.05,-0.33 0.16,-0.43 0.11,-0.1 0.26,-0.16 0.45,-0.16 0.19,0 0.33,0.05 0.44,0.16 0.11,0.1 0.16,0.25 0.16,0.43 v 3.11 c 0,0.47 0.1,0.82 0.29,1.04 0.19,0.22 0.49,0.34 0.89,0.34 0.47,0 0.85,-0.15 1.13,-0.46 0.28,-0.3 0.43,-0.71 0.43,-1.21 v -2.82 c 0,-0.18 0.06,-0.32 0.17,-0.43 0.11,-0.11 0.26,-0.16 0.44,-0.16 0.18,0 0.33,0.05 0.44,0.16 z"
       id="path3023"
       style="fill:#ffffff" />
    <path
       class="cls-2"
       d="m 88.8,13.61 c 0.4,0.26 0.7,0.62 0.92,1.08 0.22,0.46 0.33,1 0.33,1.61 0,0.61 -0.11,1.13 -0.32,1.58 -0.21,0.45 -0.52,0.81 -0.92,1.06 -0.4,0.25 -0.85,0.37 -1.36,0.37 -0.44,0 -0.83,-0.09 -1.16,-0.28 -0.34,-0.19 -0.59,-0.46 -0.77,-0.81 v 2.68 c 0,0.17 -0.05,0.3 -0.16,0.4 -0.11,0.1 -0.25,0.15 -0.43,0.15 -0.18,0 -0.33,-0.05 -0.45,-0.16 -0.12,-0.1 -0.17,-0.24 -0.17,-0.42 v -7.03 c 0,-0.18 0.06,-0.32 0.17,-0.43 0.11,-0.11 0.26,-0.16 0.44,-0.16 0.18,0 0.32,0.05 0.43,0.16 0.11,0.11 0.17,0.25 0.17,0.43 v 0.49 c 0.18,-0.35 0.43,-0.62 0.77,-0.82 0.34,-0.19 0.72,-0.29 1.16,-0.29 0.5,0 0.95,0.13 1.35,0.38 z m -0.41,4.21 c 0.29,-0.36 0.43,-0.86 0.43,-1.52 0,-0.66 -0.15,-1.18 -0.44,-1.55 -0.29,-0.37 -0.7,-0.55 -1.22,-0.55 -0.52,0 -0.93,0.18 -1.22,0.54 -0.28,0.36 -0.43,0.87 -0.43,1.54 0,0.67 0.14,1.18 0.43,1.54 0.28,0.36 0.69,0.54 1.22,0.54 0.53,0 0.94,-0.18 1.22,-0.53 z"
       id="path3025"
       style="fill:#ffffff" />
    <path
       class="cls-2"
       d="m 95.89,13.61 c 0.4,0.26 0.7,0.62 0.92,1.08 0.22,0.46 0.33,1 0.33,1.61 0,0.61 -0.11,1.13 -0.32,1.58 -0.21,0.45 -0.52,0.81 -0.92,1.06 -0.4,0.25 -0.85,0.37 -1.36,0.37 -0.44,0 -0.83,-0.09 -1.16,-0.28 -0.34,-0.19 -0.59,-0.46 -0.77,-0.81 v 2.68 c 0,0.17 -0.05,0.3 -0.16,0.4 -0.11,0.1 -0.25,0.15 -0.43,0.15 -0.18,0 -0.33,-0.05 -0.45,-0.16 -0.12,-0.1 -0.17,-0.24 -0.17,-0.42 v -7.03 c 0,-0.18 0.06,-0.32 0.17,-0.43 0.11,-0.11 0.26,-0.16 0.44,-0.16 0.18,0 0.32,0.05 0.43,0.16 0.11,0.11 0.17,0.25 0.17,0.43 v 0.49 c 0.18,-0.35 0.43,-0.62 0.77,-0.82 0.34,-0.19 0.72,-0.29 1.16,-0.29 0.5,0 0.95,0.13 1.35,0.38 z m -0.41,4.21 c 0.29,-0.36 0.43,-0.86 0.43,-1.52 0,-0.66 -0.15,-1.18 -0.44,-1.55 -0.29,-0.37 -0.7,-0.55 -1.22,-0.55 -0.52,0 -0.93,0.18 -1.22,0.54 -0.28,0.36 -0.43,0.87 -0.43,1.54 0,0.67 0.14,1.18 0.43,1.54 0.28,0.36 0.69,0.54 1.22,0.54 0.53,0 0.94,-0.18 1.22,-0.53 z"
       id="path3027"
       style="fill:#ffffff" />
    <path
       class="cls-2"
       d="m 99.52,18.94 c -0.44,-0.25 -0.77,-0.6 -1.01,-1.06 -0.24,-0.46 -0.35,-0.99 -0.35,-1.6 0,-0.61 0.12,-1.15 0.35,-1.61 0.24,-0.46 0.57,-0.81 1.01,-1.06 0.44,-0.25 0.94,-0.37 1.52,-0.37 0.58,0 1.08,0.12 1.52,0.37 0.44,0.25 0.77,0.6 1.01,1.06 0.24,0.46 0.35,1 0.35,1.61 0,0.61 -0.12,1.14 -0.35,1.6 -0.24,0.46 -0.57,0.81 -1.01,1.06 -0.44,0.25 -0.94,0.37 -1.52,0.37 -0.58,0 -1.08,-0.12 -1.52,-0.37 z m 2.75,-1.12 c 0.28,-0.35 0.43,-0.87 0.43,-1.55 0,-0.68 -0.14,-1.19 -0.43,-1.54 -0.29,-0.36 -0.7,-0.53 -1.22,-0.53 -0.52,0 -0.94,0.18 -1.22,0.53 -0.29,0.36 -0.43,0.87 -0.43,1.54 0,0.67 0.14,1.2 0.43,1.55 0.28,0.35 0.69,0.53 1.23,0.53 0.54,0 0.95,-0.18 1.23,-0.53 z"
       id="path3029"
       style="fill:#ffffff" />
    <path
       class="cls-2"
       d="m 108.91,13.75 c 0,0.18 -0.04,0.31 -0.13,0.4 -0.09,0.09 -0.24,0.14 -0.46,0.16 l -0.36,0.04 c -0.5,0.05 -0.88,0.22 -1.12,0.53 -0.24,0.3 -0.37,0.67 -0.37,1.1 v 2.75 c 0,0.19 -0.06,0.34 -0.17,0.43 -0.11,0.1 -0.26,0.14 -0.43,0.14 -0.17,0 -0.32,-0.05 -0.44,-0.14 -0.12,-0.1 -0.17,-0.24 -0.17,-0.43 v -4.88 c 0,-0.18 0.06,-0.33 0.17,-0.43 0.12,-0.1 0.26,-0.15 0.44,-0.15 0.16,0 0.29,0.05 0.4,0.15 0.11,0.1 0.16,0.24 0.16,0.41 v 0.58 c 0.16,-0.35 0.39,-0.62 0.7,-0.8 0.3,-0.18 0.65,-0.29 1.03,-0.32 h 0.17 c 0.38,-0.04 0.58,0.13 0.58,0.48 z"
       id="path3031"
       style="fill:#ffffff" />
    <path
       class="cls-2"
       d="m 113.4,18.5 c 0.08,0.08 0.11,0.18 0.11,0.32 0,0.16 -0.06,0.28 -0.19,0.37 -0.12,0.08 -0.31,0.12 -0.55,0.1 l -0.32,-0.02 c -0.65,-0.05 -1.13,-0.25 -1.45,-0.59 -0.32,-0.35 -0.48,-0.86 -0.48,-1.54 v -2.82 h -0.72 c -0.35,0 -0.53,-0.16 -0.53,-0.47 0,-0.14 0.05,-0.26 0.14,-0.34 0.09,-0.08 0.22,-0.13 0.39,-0.13 h 0.72 v -1.24 c 0,-0.18 0.05,-0.33 0.16,-0.43 0.11,-0.1 0.25,-0.16 0.44,-0.16 0.19,0 0.33,0.05 0.44,0.16 0.11,0.1 0.17,0.25 0.17,0.43 v 1.24 h 1.19 c 0.17,0 0.3,0.04 0.39,0.13 0.09,0.09 0.14,0.2 0.14,0.34 0,0.15 -0.05,0.27 -0.14,0.35 -0.09,0.08 -0.22,0.12 -0.39,0.12 h -1.19 v 2.9 c 0,0.38 0.08,0.65 0.23,0.83 0.15,0.18 0.39,0.28 0.71,0.3 l 0.34,0.02 c 0.18,0.02 0.3,0.06 0.38,0.14 z"
       id="path3033"
       style="fill:#ffffff" />
    <path
       class="cls-2"
       d="m 126.25,15.59 v 3.12 c 0,0.18 -0.06,0.33 -0.17,0.43 -0.11,0.1 -0.26,0.15 -0.44,0.15 -0.18,0 -0.32,-0.05 -0.43,-0.15 -0.11,-0.1 -0.17,-0.24 -0.17,-0.43 V 15.6 c 0,-0.49 -0.09,-0.84 -0.26,-1.06 -0.17,-0.22 -0.45,-0.33 -0.83,-0.33 -0.44,0 -0.79,0.15 -1.04,0.45 -0.26,0.3 -0.38,0.71 -0.38,1.23 v 2.82 c 0,0.18 -0.06,0.33 -0.17,0.43 -0.11,0.1 -0.26,0.15 -0.44,0.15 -0.18,0 -0.32,-0.05 -0.43,-0.15 -0.11,-0.1 -0.17,-0.24 -0.17,-0.43 V 15.6 c 0,-0.49 -0.09,-0.84 -0.26,-1.06 -0.18,-0.22 -0.45,-0.33 -0.83,-0.33 -0.44,0 -0.79,0.15 -1.05,0.45 -0.26,0.3 -0.39,0.71 -0.39,1.23 v 2.82 c 0,0.18 -0.06,0.33 -0.17,0.43 -0.11,0.1 -0.26,0.15 -0.43,0.15 -0.17,0 -0.32,-0.05 -0.44,-0.15 -0.12,-0.1 -0.17,-0.24 -0.17,-0.43 v -4.88 c 0,-0.18 0.06,-0.32 0.18,-0.42 0.12,-0.1 0.26,-0.16 0.43,-0.16 0.17,0 0.31,0.05 0.41,0.15 0.11,0.1 0.16,0.24 0.16,0.41 v 0.44 c 0.18,-0.34 0.42,-0.59 0.73,-0.77 0.31,-0.18 0.67,-0.26 1.08,-0.26 0.45,0 0.82,0.09 1.11,0.28 0.29,0.18 0.51,0.47 0.65,0.85 0.18,-0.34 0.44,-0.62 0.78,-0.82 0.34,-0.2 0.74,-0.31 1.18,-0.31 1.31,0 1.97,0.79 1.97,2.36 z"
       id="path3035"
       style="fill:#ffffff" />
    <path
       class="cls-2"
       d="m 132.76,17.89 c 0.07,0.09 0.11,0.2 0.11,0.34 0,0.23 -0.14,0.43 -0.43,0.59 -0.28,0.16 -0.59,0.28 -0.92,0.37 -0.33,0.09 -0.65,0.13 -0.95,0.13 -0.93,0 -1.66,-0.27 -2.2,-0.81 -0.54,-0.54 -0.8,-1.28 -0.8,-2.21 0,-0.6 0.12,-1.13 0.35,-1.6 0.24,-0.46 0.57,-0.82 1,-1.08 0.43,-0.26 0.91,-0.38 1.46,-0.38 0.78,0 1.4,0.25 1.86,0.76 0.46,0.51 0.68,1.18 0.68,2.04 0,0.32 -0.14,0.48 -0.43,0.48 h -3.71 c 0.08,1.24 0.68,1.86 1.79,1.86 0.3,0 0.55,-0.04 0.77,-0.12 0.22,-0.08 0.44,-0.18 0.68,-0.31 0.02,-0.02 0.09,-0.05 0.2,-0.1 0.11,-0.05 0.2,-0.08 0.27,-0.08 0.11,0 0.2,0.04 0.28,0.13 z m -3.48,-3.32 c -0.28,0.3 -0.45,0.71 -0.5,1.25 h 3.1 c -0.02,-0.54 -0.16,-0.96 -0.41,-1.25 -0.25,-0.29 -0.61,-0.44 -1.06,-0.44 -0.45,0 -0.84,0.15 -1.12,0.44 z"
       id="path3037"
       style="fill:#ffffff" />
    <path
       class="cls-2"
       d="m 138.45,18.94 c -0.44,-0.25 -0.77,-0.6 -1.01,-1.06 -0.24,-0.46 -0.35,-0.99 -0.35,-1.6 0,-0.61 0.12,-1.15 0.35,-1.61 0.24,-0.46 0.57,-0.81 1.01,-1.06 0.44,-0.25 0.94,-0.37 1.52,-0.37 0.58,0 1.08,0.12 1.52,0.37 0.44,0.25 0.77,0.6 1.01,1.06 0.24,0.46 0.35,1 0.35,1.61 0,0.61 -0.12,1.14 -0.35,1.6 -0.23,0.46 -0.57,0.81 -1.01,1.06 -0.44,0.25 -0.94,0.37 -1.52,0.37 -0.58,0 -1.08,-0.12 -1.52,-0.37 z m 2.75,-1.12 c 0.28,-0.35 0.43,-0.87 0.43,-1.55 0,-0.68 -0.14,-1.19 -0.43,-1.54 -0.29,-0.36 -0.7,-0.53 -1.22,-0.53 -0.52,0 -0.94,0.18 -1.22,0.53 -0.29,0.36 -0.43,0.87 -0.43,1.54 0,0.67 0.14,1.2 0.43,1.55 0.28,0.35 0.69,0.53 1.23,0.53 0.54,0 0.95,-0.18 1.23,-0.53 z"
       id="path3039"
       style="fill:#ffffff" />
    <path
       class="cls-2"
       d="m 149.44,15.59 v 3.12 c 0,0.18 -0.05,0.33 -0.16,0.43 -0.11,0.1 -0.26,0.15 -0.45,0.15 -0.19,0 -0.33,-0.05 -0.44,-0.16 -0.11,-0.1 -0.16,-0.24 -0.16,-0.42 v -3.06 c 0,-0.5 -0.1,-0.86 -0.29,-1.09 -0.2,-0.23 -0.5,-0.35 -0.92,-0.35 -0.49,0 -0.88,0.15 -1.18,0.46 -0.3,0.3 -0.44,0.71 -0.44,1.22 v 2.82 c 0,0.18 -0.05,0.32 -0.16,0.42 -0.11,0.1 -0.25,0.16 -0.44,0.16 -0.19,0 -0.33,-0.05 -0.44,-0.16 -0.11,-0.11 -0.17,-0.24 -0.17,-0.42 v -4.88 c 0,-0.17 0.06,-0.31 0.17,-0.41 0.12,-0.11 0.26,-0.16 0.44,-0.16 0.18,0 0.32,0.05 0.42,0.16 0.1,0.11 0.16,0.24 0.16,0.41 v 0.49 c 0.19,-0.35 0.46,-0.62 0.8,-0.8 0.34,-0.18 0.73,-0.28 1.16,-0.28 1.4,0 2.1,0.79 2.1,2.36 z"
       id="path3041"
       style="fill:#ffffff" />
  </g>
  <g
     id="g3053"
     style="display:none">
    <path
       class="cls-2"
       d="m 88.61,46.56 c 0.08,0.24 0.13,0.47 0.13,0.68 0,0.56 -0.21,1.04 -0.64,1.41 -0.43,0.38 -0.93,0.56 -1.49,0.56 -0.27,0 -0.53,-0.06 -0.78,-0.19 -0.25,-0.13 -0.46,-0.3 -0.63,-0.53 l -6.81,-8.98 -2.98,2.86 v 4.93 c 0,0.56 -0.18,1.03 -0.55,1.38 -0.37,0.35 -0.84,0.53 -1.43,0.53 -0.59,0 -1.03,-0.18 -1.4,-0.55 -0.37,-0.37 -0.55,-0.82 -0.55,-1.37 V 29.15 c 0,-0.54 0.19,-1 0.56,-1.37 0.37,-0.37 0.86,-0.55 1.44,-0.55 0.58,0 1.03,0.18 1.38,0.53 0.36,0.36 0.53,0.82 0.53,1.38 v 8.54 l 10.05,-9.89 c 0.48,-0.48 0.99,-0.72 1.54,-0.72 0.48,0 0.89,0.2 1.22,0.6 0.33,0.4 0.5,0.82 0.5,1.26 0,0.44 -0.19,0.85 -0.57,1.22 l -6.84,6.53 7,9.26 c 0.12,0.17 0.23,0.37 0.31,0.61 z"
       id="path3045"
       style="fill:#ffffff" />
    <path
       class="cls-2"
       d="m 106.07,45.34 c -0.75,1.33 -1.78,2.36 -3.09,3.09 -1.31,0.73 -2.75,1.1 -4.32,1.1 -1.57,0 -3.04,-0.37 -4.33,-1.1 -1.3,-0.73 -2.32,-1.76 -3.08,-3.09 -0.76,-1.33 -1.13,-2.83 -1.13,-4.51 0,-1.68 0.38,-3.18 1.13,-4.51 0.75,-1.33 1.78,-2.37 3.08,-3.11 1.3,-0.74 2.74,-1.11 4.33,-1.11 1.59,0 3.01,0.37 4.32,1.11 1.31,0.74 2.34,1.78 3.09,3.11 0.75,1.33 1.13,2.83 1.13,4.51 0,1.68 -0.38,3.18 -1.13,4.51 z m -3.28,-7.25 c -0.43,-0.81 -1,-1.43 -1.73,-1.87 -0.72,-0.44 -1.52,-0.66 -2.4,-0.66 -0.88,0 -1.68,0.22 -2.4,0.66 -0.72,0.44 -1.3,1.06 -1.73,1.87 -0.43,0.81 -0.64,1.72 -0.64,2.75 0,1.03 0.21,1.94 0.64,2.73 0.43,0.8 1,1.41 1.73,1.85 0.72,0.44 1.52,0.66 2.4,0.66 0.88,0 1.68,-0.22 2.4,-0.66 0.72,-0.44 1.3,-1.06 1.73,-1.85 0.43,-0.8 0.64,-1.71 0.64,-2.73 0,-1.02 -0.21,-1.94 -0.64,-2.75 z"
       id="path3047"
       style="fill:#ffffff" />
    <path
       class="cls-2"
       d="m 110.42,40.93 c -0.37,-0.36 -0.55,-0.81 -0.55,-1.35 0,-0.54 0.18,-0.96 0.55,-1.32 0.37,-0.36 0.82,-0.53 1.37,-0.53 h 5.46 c 0.54,0 1,0.18 1.37,0.55 0.37,0.37 0.55,0.82 0.55,1.37 0,0.55 -0.18,0.96 -0.55,1.3 -0.37,0.35 -0.82,0.52 -1.37,0.52 h -5.46 c -0.54,0 -1,-0.18 -1.37,-0.53 z"
       id="path3049"
       style="fill:#ffffff" />
    <path
       class="cls-2"
       d="m 129.34,29.92 c -0.29,0.41 -0.44,0.85 -0.44,1.33 v 1.48 h 2.86 c 0.5,0 0.92,0.16 1.26,0.49 0.33,0.32 0.5,0.74 0.5,1.24 0,0.5 -0.17,0.92 -0.5,1.24 -0.33,0.32 -0.75,0.49 -1.26,0.49 H 128.9 V 47.3 c 0,0.54 -0.18,1 -0.53,1.37 -0.36,0.37 -0.81,0.55 -1.35,0.55 -0.54,0 -0.99,-0.18 -1.35,-0.55 -0.36,-0.37 -0.53,-0.82 -0.53,-1.37 V 36.19 h -1.7 c -0.5,0 -0.92,-0.16 -1.26,-0.49 -0.33,-0.32 -0.5,-0.74 -0.5,-1.24 0,-0.5 0.17,-0.92 0.5,-1.24 0.33,-0.32 0.75,-0.49 1.26,-0.49 h 1.7 v -1.44 c 0,-1.57 0.54,-2.85 1.62,-3.83 1.08,-0.98 2.63,-1.48 4.66,-1.48 0.77,0 1.45,0.16 2.03,0.47 0.58,0.31 0.86,0.8 0.86,1.44 0,0.5 -0.15,0.91 -0.44,1.22 -0.29,0.31 -0.65,0.47 -1.07,0.47 -0.11,0 -0.21,-0.01 -0.33,-0.03 -0.12,-0.02 -0.24,-0.04 -0.36,-0.06 -0.5,-0.13 -0.92,-0.19 -1.26,-0.19 -0.71,0 -1.21,0.2 -1.51,0.61 z m 6.66,0.11 c -0.29,-0.23 -0.44,-0.64 -0.44,-1.22 v -0.6 c 0,-0.59 0.16,-0.99 0.47,-1.22 0.31,-0.23 0.82,-0.35 1.51,-0.35 0.73,0 1.25,0.12 1.54,0.35 0.29,0.23 0.44,0.64 0.44,1.22 v 0.6 c 0,0.61 -0.15,1.02 -0.46,1.24 -0.3,0.22 -0.82,0.33 -1.55,0.33 -0.73,0 -1.21,-0.11 -1.51,-0.35 z m 2.89,18.63 c -0.36,0.37 -0.81,0.55 -1.35,0.55 -0.54,0 -1,-0.18 -1.35,-0.55 -0.36,-0.37 -0.53,-0.82 -0.53,-1.37 V 34.32 c 0,-0.54 0.18,-1 0.53,-1.37 0.36,-0.37 0.81,-0.55 1.35,-0.55 0.54,0 0.99,0.18 1.35,0.55 0.36,0.37 0.53,0.82 0.53,1.37 v 12.97 c 0,0.54 -0.18,1 -0.53,1.37 z"
       id="path3051"
       style="fill:#ffffff" />
  </g>
  <circle
     class="cls-1"
     cx="32.009998"
     cy="32.130001"
     r="25.049999"
     id="circle3055"
     style="fill:#00bbf1" />
  <g
     id="g3060"
     style="display:inline">
    <path
       id="path38-6"
       class="cls-2"
       d="m 43.42,34.33 c -1.38,0.17 -2.5,0.04 -2.5,0.04 v -8.46 h 1.7 c 1.12,0 2.21,0.47 2.94,1.32 0.52,0.6 0.93,1.44 0.93,2.61 0,2.85 -1.47,3.97 -3.06,4.49 m 7.27,-5.94 c -0.5,-2.62 -1.91,-4.25 -3.35,-5.26 -1.44,-1.01 -3.28,-1.58 -5.1,-1.58 H 16.38 c -0.9,0 -1.24,0.88 -1.25,1.32 0,0.06 0,0.29 0,0.29 0,0 -0.04,11.44 0.04,17.55 0.24,3.61 3.86,3.61 3.86,3.61 0,0 11.8,-0.03 17.46,-0.07 0.27,0 0.53,-0.03 0.79,-0.09 3.22,-0.81 3.55,-3.8 3.52,-5.47 6.48,0.36 11.04,-4.21 9.89,-10.29"
       style="fill:#ffffff" />
    <path
       d="m 19.03,45.32 c -1.58,0 -4.61,-0.95 -4.86,-4.54 -0.08,-6.1 -0.04,-17.5 -0.04,-17.62 v -0.3 c 0,-0.92 0.72,-2.3 2.25,-2.3 h 25.86 c 2.07,0 4.03,0.61 5.68,1.76 2.02,1.41 3.29,3.39 3.76,5.89 v 0 c 0.58,3.06 -0.14,5.94 -2.03,8.1 -1.86,2.12 -4.69,3.33 -7.87,3.4 -0.23,2.88 -1.71,4.79 -4.25,5.42 -0.32,0.08 -0.67,0.12 -1.02,0.12 -5.66,0.04 -17.46,0.07 -17.46,0.07 v 0 z M 16.38,22.56 c -0.2,0 -0.25,0.32 -0.25,0.33 v 0.27 c 0,0.13 -0.04,11.51 0.04,17.54 0.17,2.54 2.58,2.62 2.86,2.62 v 0 c 0,0 11.79,-0.03 17.45,-0.07 0.2,0 0.38,-0.02 0.55,-0.06 1.88,-0.47 2.81,-1.98 2.76,-4.48 0,-0.28 0.11,-0.55 0.31,-0.74 0.2,-0.19 0.47,-0.3 0.75,-0.28 2.97,0.16 5.63,-0.82 7.28,-2.7 1.48,-1.68 2.04,-3.96 1.57,-6.41 v 0 c -0.37,-1.97 -1.36,-3.52 -2.94,-4.62 -1.31,-0.92 -2.88,-1.4 -4.53,-1.4 z m 25.56,12.86 c -0.67,0 -1.11,-0.05 -1.14,-0.05 -0.5,-0.06 -0.89,-0.49 -0.89,-0.99 v -8.46 c 0,-0.55 0.45,-1 1,-1 h 1.7 c 1.44,0 2.79,0.61 3.7,1.67 0.78,0.9 1.17,2 1.17,3.26 0,2.8 -1.26,4.63 -3.75,5.44 -0.06,0.02 -0.12,0.03 -0.18,0.04 -0.6,0.08 -1.15,0.1 -1.6,0.1 z m 1.48,-1.09 z m -1.5,-0.91 c 0.35,0.01 0.8,-0.02 1.29,-0.07 1.14,-0.39 2.28,-1.13 2.28,-3.51 0,-0.77 -0.23,-1.43 -0.69,-1.95 -0.53,-0.62 -1.33,-0.97 -2.18,-0.97 h -0.7 z"
       id="path3058" />
  </g>
  <path
     id="path42-3"
     class="cls-3"
     d="m 27.8,39.569999 c 0.28,0.14 0.46,-0.03 0.46,-0.03 0,0 4.12,-3.76 5.97,-5.92 1.65,-1.94 1.76,-5.2 -1.08,-6.41 -2.83,-1.22 -5.16,1.43 -5.16,1.43 -2.02,-2.22 -5.08,-2.11 -6.49,-0.61 -1.41,1.5 -0.92,4.08 0.13,5.52 0.99,1.35 5.34,5.23 6,5.88 0,0 0.05,0.05 0.16,0.13"
     style="display:inline;fill:#ff5f5f" />
  <text
     xml:space="preserve"
     style="font-style:normal;font-variant:normal;font-weight:bold;font-stretch:normal;font-size:32px;font-family:Nunito;-inkscape-font-specification:'Nunito Bold';text-align:center;text-anchor:middle;display:none;fill:#fdfeff;fill-opacity:1;stroke:none;stroke-width:2.2;stroke-dasharray:none"
     x="122.3345"
     y="43.551071"
     id="text2655"><tspan
       id="tspan2653"
       x="122.3345"
       y="43.551071">Donate</tspan></text>
  <g
     aria-label="Donate"
     id="text6922"
     style="font-weight:bold;font-size:32px;font-family:Nunito;-inkscape-font-specification:'Nunito Bold';text-align:center;text-anchor:middle;display:inline;fill:#fdfeff;stroke-width:2.2">
    <path
       d="m 72.718491,43.551071 q -1.056,0 -1.632,-0.544 -0.544,-0.576 -0.544,-1.632 v -18.208 q 0,-1.056 0.544,-1.6 0.576,-0.576 1.632,-0.576 h 6.208 q 5.664,0 8.736,2.912 3.104,2.912 3.104,8.352 0,2.72 -0.8,4.832 -0.768,2.08 -2.304,3.52 -1.504,1.44 -3.712,2.208 -2.176,0.736 -5.024,0.736 z m 1.92,-3.392 h 4.032 q 1.984,0 3.424,-0.48 1.472,-0.512 2.432,-1.472 0.992,-0.992 1.472,-2.464 0.48,-1.504 0.48,-3.488 0,-3.968 -1.952,-5.92 -1.952,-1.952 -5.856,-1.952 h -4.032 z"
       id="path6924" />
    <path
       d="m 101.67846,43.871071 q -2.431997,0 -4.223997,-0.992 -1.792,-0.992 -2.784,-2.816 -0.992,-1.856 -0.992,-4.352 0,-1.888 0.544,-3.36 0.576,-1.504 1.632,-2.56 1.056,-1.088 2.528,-1.632 1.472,-0.576 3.295997,-0.576 2.432,0 4.224,0.992 1.792,0.992 2.784,2.816 0.992,1.824 0.992,4.32 0,1.888 -0.576,3.392 -0.544,1.504 -1.6,2.592 -1.056,1.056 -2.528,1.632 -1.472,0.544 -3.296,0.544 z m 0,-3.04 q 1.184,0 2.08,-0.576 0.896,-0.576 1.376,-1.696 0.512,-1.152 0.512,-2.848 0,-2.56 -1.088,-3.808 -1.088,-1.28 -2.88,-1.28 -1.184,0 -2.079997,0.576 -0.896,0.544 -1.408,1.696 -0.48,1.12 -0.48,2.816 0,2.528 1.088,3.84 1.088,1.28 2.879997,1.28 z"
       id="path6926" />
    <path
       d="m 114.95847,43.807071 q -0.96,0 -1.472,-0.512 -0.512,-0.544 -0.512,-1.536 v -12.096 q 0,-0.992 0.512,-1.504 0.512,-0.512 1.44,-0.512 0.928,0 1.44,0.512 0.512,0.512 0.512,1.504 v 2.176 l -0.352,-0.8 q 0.704,-1.696 2.176,-2.56 1.504,-0.896 3.392,-0.896 1.888,0 3.104,0.704 1.216,0.704 1.824,2.144 0.608,1.408 0.608,3.584 v 7.744 q 0,0.992 -0.512,1.536 -0.512,0.512 -1.472,0.512 -0.96,0 -1.504,-0.512 -0.512,-0.544 -0.512,-1.536 v -7.552 q 0,-1.824 -0.704,-2.656 -0.672,-0.832 -2.112,-0.832 -1.76,0 -2.816,1.12 -1.024,1.088 -1.024,2.912 v 7.008 q 0,2.048 -2.016,2.048 z"
       id="path6928" />
    <path
       d="m 136.84644,43.871071 q -1.696,0 -3.04,-0.64 -1.312,-0.672 -2.08,-1.792 -0.736,-1.12 -0.736,-2.528 0,-1.728 0.896,-2.72 0.896,-1.024 2.912,-1.472 2.016,-0.448 5.408,-0.448 h 1.6 v 2.304 h -1.568 q -1.984,0 -3.168,0.192 -1.184,0.192 -1.696,0.672 -0.48,0.448 -0.48,1.28 0,1.056 0.736,1.728 0.736,0.672 2.048,0.672 1.056,0 1.856,-0.48 0.832,-0.512 1.312,-1.376 0.48,-0.864 0.48,-1.984 v -3.68 q 0,-1.6 -0.704,-2.304 -0.704,-0.704 -2.368,-0.704 -0.928,0 -2.016,0.224 -1.056,0.224 -2.24,0.768 -0.608,0.288 -1.088,0.16 -0.448,-0.128 -0.704,-0.512 -0.256,-0.416 -0.256,-0.896 0,-0.48 0.256,-0.928 0.256,-0.48 0.864,-0.704 1.472,-0.608 2.816,-0.864 1.376,-0.256 2.496,-0.256 2.304,0 3.776,0.704 1.504,0.704 2.24,2.144 0.736,1.408 0.736,3.648 v 7.68 q 0,0.992 -0.48,1.536 -0.48,0.512 -1.376,0.512 -0.896,0 -1.408,-0.512 -0.48,-0.544 -0.48,-1.536 v -1.536 h 0.256 q -0.224,1.12 -0.896,1.952 -0.64,0.8 -1.632,1.248 -0.992,0.448 -2.272,0.448 z"
       id="path6930" />
    <path
       d="m 156.36647,43.871071 q -2.08,0 -3.488,-0.704 -1.376,-0.704 -2.048,-2.048 -0.672,-1.376 -0.672,-3.392 v -6.816 h -1.664 q -0.768,0 -1.184,-0.384 -0.416,-0.416 -0.416,-1.12 0,-0.736 0.416,-1.12 0.416,-0.384 1.184,-0.384 h 1.664 v -2.912 q 0,-0.992 0.512,-1.504 0.544,-0.512 1.504,-0.512 0.96,0 1.472,0.512 0.512,0.512 0.512,1.504 v 2.912 h 3.392 q 0.768,0 1.184,0.384 0.416,0.384 0.416,1.12 0,0.704 -0.416,1.12 -0.416,0.384 -1.184,0.384 h -3.392 v 6.592 q 0,1.536 0.672,2.304 0.672,0.768 2.176,0.768 0.544,0 0.96,-0.096 0.416,-0.096 0.736,-0.128 0.384,-0.032 0.64,0.256 0.256,0.256 0.256,1.088 0,0.64 -0.224,1.152 -0.192,0.48 -0.736,0.672 -0.416,0.128 -1.088,0.224 -0.672,0.128 -1.184,0.128 z"
       id="path6932" />
    <path
       d="m 169.03852,43.871071 q -2.656,0 -4.576,-0.992 -1.92,-0.992 -2.976,-2.816 -1.024,-1.824 -1.024,-4.32 0,-2.432 0.992,-4.256 1.024,-1.824 2.784,-2.848 1.792,-1.056 4.064,-1.056 1.664,0 2.976,0.544 1.344,0.544 2.272,1.568 0.96,1.024 1.44,2.496 0.512,1.44 0.512,3.264 0,0.576 -0.416,0.896 -0.384,0.288 -1.12,0.288 h -10.272 v -2.304 h 8.992 l -0.512,0.48 q 0,-1.472 -0.448,-2.464 -0.416,-0.992 -1.248,-1.504 -0.8,-0.544 -2.016,-0.544 -1.344,0 -2.304,0.64 -0.928,0.608 -1.44,1.76 -0.48,1.12 -0.48,2.688 v 0.224 q 0,2.624 1.216,3.936 1.248,1.28 3.648,1.28 0.832,0 1.856,-0.192 1.056,-0.224 1.984,-0.736 0.672,-0.384 1.184,-0.32 0.512,0.032 0.8,0.352 0.32,0.32 0.384,0.8 0.064,0.448 -0.192,0.928 -0.224,0.48 -0.8,0.832 -1.12,0.704 -2.592,1.056 -1.44,0.32 -2.688,0.32 z"
       id="path6934" />
  </g>
</svg>
