<?xml version="1.0" encoding="UTF-8" standalone="no"?>
<!-- Created with Inkscape (http://www.inkscape.org/) -->

<svg
   width="360"
   height="200"
   viewBox="0 0 360 200"
   version="1.1"
   id="svg5"
   xml:space="preserve"
   xmlns="http://www.w3.org/2000/svg"
   xmlns:svg="http://www.w3.org/2000/svg"
   xmlns:rdf="http://www.w3.org/1999/02/22-rdf-syntax-ns#"
   xmlns:cc="http://creativecommons.org/ns#"
   xmlns:dc="http://purl.org/dc/elements/1.1/"><title
     id="title267">sed logo (unofficial)</title><defs
     id="defs2" /><rect
     style="fill:#1a1a1a;stroke:#000000;stroke-width:2.2"
     id="rect427"
     width="357.79999"
     height="197.8"
     x="1.1"
     y="1.1"
     rx="40"
     ry="40" /><path
     style="fill:#ffffff;stroke-width:0.999994"
     d="m 52.499996,152.50001 v -7.5 H 82.499997 112.5 V 137.5 130.00001 H 89.999998 67.499997 v -7.5 -7.50002 h -7.500001 -7.5 V 107.5 100 h 7.5 7.500001 V 92.5 85 H 97.5 h 30 v 7.5 7.5 h -30 -30.000003 v 7.5 7.49999 H 97.5 h 30 v 15.00002 15 h -7.5 -7.5 v 7.5 V 160 H 82.499997 52.499996 Z m 105.000004,0 v -7.5 H 150.00001 142.5 v -22.5 V 100 H 150.00001 157.5 V 92.5 85 h 22.5 22.5 v 7.5 7.5 h 7.5 7.5 v 14.99999 15.00002 H 187.50001 157.5 V 137.5 145.00001 H 187.50001 217.5 v 7.5 V 160 H 187.50001 157.5 Z M 202.5,107.5 V 100 H 180 157.5 v 7.5 7.49999 h 22.5 22.5 z m 45,45.00001 v -7.5 h -7.49999 -7.5 v -22.5 V 100 h 7.5 H 247.5 V 92.5 85 H 270 292.50002 V 62.5 39.999999 H 300.00001 307.5 V 100 160 h -30 -30 z m 45.00002,-30 V 100 H 270 247.5 v 22.50001 22.5 h 22.5 22.50002 z"
     id="path976" /><metadata
     id="metadata265"><rdf:RDF><cc:Work
         rdf:about=""><dc:title>sed logo (unofficial)</dc:title><dc:date>2024-08-07</dc:date><dc:creator><cc:Agent><dc:title>Alex Rogers (linguisticmind)</dc:title></cc:Agent></dc:creator><cc:license
           rdf:resource="http://creativecommons.org/licenses/by-nc-sa/4.0/" /><dc:description>Contact the author:

YouTube: https://www.youtube.com/@mindfultechnology
GitHub: https://github.com/linguisticmind
Ko-fi: https://ko-fi.com/linguisticmind</dc:description></cc:Work><cc:License
         rdf:about="http://creativecommons.org/licenses/by-nc-sa/4.0/"><cc:permits
           rdf:resource="http://creativecommons.org/ns#Reproduction" /><cc:permits
           rdf:resource="http://creativecommons.org/ns#Distribution" /><cc:requires
           rdf:resource="http://creativecommons.org/ns#Notice" /><cc:requires
           rdf:resource="http://creativecommons.org/ns#Attribution" /><cc:prohibits
           rdf:resource="http://creativecommons.org/ns#CommercialUse" /><cc:permits
           rdf:resource="http://creativecommons.org/ns#DerivativeWorks" /><cc:requires
           rdf:resource="http://creativecommons.org/ns#ShareAlike" /></cc:License></rdf:RDF></metadata></svg>
